<svg width="512" height="639" viewBox="0 0 512 639" fill="none" xmlns="http://www.w3.org/2000/svg">
<g clip-path="url(#clip0)">
<path d="M440.357 135.294C481.441 161.667 500.121 222.889 505.027 281.99C509.934 341.092 501.185 398.08 479.986 460.092C458.787 522.105 425.254 589.29 372.495 612.228C319.617 635.283 247.537 614.082 193.337 579.093C139.294 544.111 102.984 495.215 69.0602 442.202C35.1366 389.19 3.4667 331.951 0.289544 267.544C-3.02065 203.145 22.154 131.475 72.1121 106.667C122.195 81.8902 197.07 104.147 266.373 110.909C335.675 117.67 399.281 108.921 440.357 135.294Z" fill="#F0F0F0"/>
<path d="M313.021 639C335.042 583.554 377.972 555.122 380.32 487.045C380.398 482.005 297.37 428.452 258.633 429.352C219.897 430.252 169.195 639 169.195 639H313.021Z" fill="white"/>
<path d="M392.418 40.3894H143.966V483.132H392.418V40.3894Z" fill="white"/>
<path d="M367.666 234.237H168.734V311.267H367.666V234.237Z" fill="white"/>
<path d="M249.728 256.439H340.652" stroke="#B0C3FA" stroke-width="4.78" stroke-linecap="round" stroke-linejoin="round"/>
<path d="M249.728 280.277H286.664" stroke="#B0C3FA" stroke-width="4.78" stroke-linecap="round" stroke-linejoin="round"/>
<path d="M208.354 293.761C219.959 293.761 229.366 284.353 229.366 272.748C229.366 261.143 219.959 251.736 208.354 251.736C196.75 251.736 187.343 261.143 187.343 272.748C187.343 284.353 196.75 293.761 208.354 293.761Z" fill="#ECC953"/>
<path d="M343.697 574.069C360.232 548.415 375.053 522.355 376.407 483.132" stroke="#1B3C87" stroke-width="4.78" stroke-linecap="round" stroke-linejoin="round"/>
<path d="M309.108 635.087C313.783 623.579 319.402 612.478 325.909 601.898" stroke="#1B3C87" stroke-width="4.78" stroke-linecap="round" stroke-linejoin="round"/>
<path d="M367.666 121.145H168.734V198.175H367.666V121.145Z" fill="white"/>
<path d="M392.418 40.3894H143.966V85.9831H392.418V40.3894Z" fill="#D6DFFF"/>
<path d="M392.418 437.53H143.966V483.124H392.418V437.53Z" fill="#D6DFFF"/>
<path d="M249.728 63.1862H286.664" stroke="#1B3C87" stroke-width="4.78" stroke-linecap="round" stroke-linejoin="round"/>
<path d="M268.196 471.275C274.242 471.275 279.144 466.374 279.144 460.327C279.144 454.28 274.242 449.379 268.196 449.379C262.15 449.379 257.248 454.28 257.248 460.327C257.248 466.374 262.15 471.275 268.196 471.275Z" fill="#B0C3FA"/>
<path d="M107.577 639C119.316 594.392 121.663 423.788 107.577 384.658C127.924 369.789 211.657 306.399 224.178 296.226C235.916 304.052 230.438 369.007 192.093 397.18V416.745C212.439 416.745 242.959 484.83 225.743 556.828C215.796 588.366 246.598 639 246.598 639H107.577Z" fill="white"/>
<path d="M207.54 429.258C222.472 453.745 233.913 502.368 221.83 552.907" stroke="#1B3C87" stroke-width="4.78" stroke-linecap="round" stroke-linejoin="round"/>
<path d="M208.354 301.626C213.942 297.314 218.136 294.042 220.265 292.313C232.003 300.139 226.525 365.094 188.18 393.267V407.502" stroke="#1B3C87" stroke-width="4.78" stroke-linecap="round" stroke-linejoin="round"/>
<path d="M115.426 372.027C133.073 358.864 161.855 337.124 185.073 319.469" stroke="#1B3C87" stroke-width="4.78" stroke-linecap="round" stroke-linejoin="round"/>
<path d="M103.665 635.087C112.914 599.941 116.326 486.599 110.473 420.947" stroke="#1B3C87" stroke-width="4.78" stroke-linecap="round" stroke-linejoin="round"/>
<path d="M323.429 143.347H340.652" stroke="#B0C3FA" stroke-width="4.78" stroke-linecap="round" stroke-linejoin="round"/>
<path d="M249.728 143.347H306.205" stroke="#B0C3FA" stroke-width="4.78" stroke-linecap="round" stroke-linejoin="round"/>
<path d="M249.728 167.185H286.664" stroke="#B0C3FA" stroke-width="4.78" stroke-linecap="round" stroke-linejoin="round"/>
<path d="M208.354 180.669C219.959 180.669 229.366 171.261 229.366 159.656C229.366 148.051 219.959 138.644 208.354 138.644C196.75 138.644 187.343 148.051 187.343 159.656C187.343 171.261 196.75 180.669 208.354 180.669Z" fill="#FB5D64"/>
<path d="M418.446 368.748C476.222 407.361 382.683 480.659 357.704 500.904C351.24 496.271 346.756 433.39 418.446 368.748Z" fill="white"/>
<path d="M374.193 480.087C365.905 487.264 358.581 493.102 353.792 496.991C344.8 492.116 347.899 456.571 373.355 416.956" stroke="#1B3C87" stroke-width="4.78" stroke-linecap="round" stroke-linejoin="round"/>
<path d="M414.533 364.835C446.156 385.965 432.446 417.488 409.462 445.02" stroke="#1B3C87" stroke-width="4.78" stroke-linecap="round" stroke-linejoin="round"/>
<path d="M443.425 96.2977C449.147 96.2977 453.786 91.6587 453.786 85.9362C453.786 80.2137 449.147 75.5747 443.425 75.5747C437.703 75.5747 433.064 80.2137 433.064 85.9362C433.064 91.6587 437.703 96.2977 443.425 96.2977Z" stroke="#B0C3FA" stroke-width="4.78" stroke-linecap="round" stroke-linejoin="round"/>
<path d="M410.487 26.1463C410.487 25.8255 410.487 25.4968 410.487 25.1681C410.488 19.9698 412.226 14.9208 415.427 10.8247C418.627 6.72853 423.106 3.82047 428.149 2.56321C433.193 1.30595 438.513 1.77172 443.261 3.88642C448.01 6.00112 451.915 9.64325 454.355 14.2333C456.794 18.8234 457.629 24.0976 456.726 29.2169C455.823 34.3362 453.234 39.0063 449.371 42.4843C445.507 45.9623 440.592 48.0483 435.407 48.4103C430.221 48.7724 425.063 47.3898 420.754 44.4824" stroke="#B0C3FA" stroke-width="4.78" stroke-linecap="round" stroke-linejoin="round"/>
<path d="M488.946 57.4264C485.606 56.4223 482.672 54.3813 480.568 51.5989C478.464 48.8165 477.301 45.437 477.245 41.9493C477.19 38.4616 478.245 35.0467 480.259 32.1987C482.273 29.3508 485.141 27.2175 488.447 26.1076C491.754 24.9976 495.328 24.9686 498.652 26.0247C501.977 27.0808 504.879 29.1673 506.939 31.9822C508.998 34.7971 510.109 38.1944 510.11 41.6825C510.111 45.1706 509.003 48.5686 506.945 51.3848" stroke="#B0C3FA" stroke-width="4.78" stroke-linecap="round" stroke-linejoin="round"/>
<path d="M397.904 333.79C336.865 370.572 329.822 450.396 337.648 455.091C359.559 446.483 440.944 356.485 440.944 315.008C440.944 305.617 413.727 287.852 407.475 285.309C403.969 283.939 407.702 278.171 395.22 289.715C395.298 301.18 394.406 322.583 397.904 333.79Z" fill="white"/>
<path d="M403.562 281.396C409.822 283.939 437.031 301.704 437.031 311.095C437.031 321.269 432.109 334.432 424.362 348.565" stroke="#1B3C87" stroke-width="4.78" stroke-linecap="round" stroke-linejoin="round"/>
<path d="M393.764 393.251C370.64 422.105 344.714 446.867 333.735 451.163C325.909 446.467 332.952 366.643 393.991 329.862" stroke="#1B3C87" stroke-width="4.78" stroke-linecap="round" stroke-linejoin="round"/>
<path d="M396.339 234.401C408.86 225.01 452.683 182.75 457.378 176.49C467.551 173.359 485.55 222.662 396.339 294.661" fill="white"/>
<path d="M427.915 257.581C416.98 269.558 405.114 280.648 392.426 290.748" stroke="#1B3C87" stroke-width="4.78" stroke-linecap="round" stroke-linejoin="round"/>
<path d="M392.426 230.488C404.947 221.097 448.77 178.837 453.465 172.577C460.665 170.362 471.792 194.434 446.007 234.237" stroke="#1B3C87" stroke-width="4.78" stroke-linecap="round" stroke-linejoin="round"/>
</g>
<defs>
<clipPath id="clip0">
<rect width="512" height="639" fill="white"/>
</clipPath>
</defs>
</svg>
